<svg xmlns="http://www.w3.org/2000/svg" xmlns:xlink="http://www.w3.org/1999/xlink" preserveAspectRatio="xMidYMid" width="16" height="12" viewBox="0 0 16 12">
  <defs>
    <style>

      .cls-2 {
        fill: #a9afbf;
      }
    </style>
  </defs>
  <path d="M13.000,12.000 C13.000,12.000 3.000,12.000 3.000,12.000 C1.343,12.000 0.000,10.657 0.000,9.000 C0.000,9.000 0.000,3.000 0.000,3.000 C0.000,1.343 1.343,0.000 3.000,0.000 C3.000,0.000 13.000,0.000 13.000,0.000 C14.657,0.000 16.000,1.343 16.000,3.000 C16.000,3.000 16.000,9.000 16.000,9.000 C16.000,10.657 14.657,12.000 13.000,12.000 ZM6.215,2.728 C6.215,2.728 6.215,8.639 6.215,8.639 C6.215,8.639 10.714,5.510 10.714,5.510 C10.714,5.510 6.215,2.728 6.215,2.728 Z" id="path-1" class="cls-2" fill-rule="evenodd"/>
</svg>
