<svg xmlns="http://www.w3.org/2000/svg" xmlns:xlink="http://www.w3.org/1999/xlink" preserveAspectRatio="xMidYMid" width="16" height="13" viewBox="0 0 16 13">
  <defs>
    <style>

      .cls-2 {
        fill: #a9afbf;
      }
    </style>
  </defs>
  <path d="M16.000,1.496 C16.000,1.496 14.500,2.992 14.500,2.992 C14.500,2.992 14.500,2.857 14.500,3.242 C14.500,3.515 14.456,3.776 14.392,4.030 C14.357,6.089 13.700,8.819 11.000,10.973 C5.689,15.211 -0.000,11.472 -0.000,11.472 C4.500,11.472 4.500,9.975 4.500,9.975 C3.500,9.975 1.500,7.980 1.500,7.980 C2.000,8.479 3.000,7.980 3.000,7.980 C0.500,6.484 0.500,4.987 0.500,4.987 C1.000,5.486 2.000,4.987 2.000,4.987 C-0.500,2.992 1.000,0.498 1.000,0.498 C1.500,2.992 8.000,3.990 8.000,3.990 C8.000,3.990 8.083,3.948 8.083,3.948 C8.032,3.720 8.000,3.236 8.000,2.992 C8.000,1.202 9.455,-0.001 11.250,-0.001 C12.238,-0.001 13.112,0.449 13.708,1.143 C13.708,1.143 14.000,0.997 14.000,0.997 C14.000,0.997 15.500,-0.001 15.500,-0.001 C15.500,-0.001 14.500,1.995 14.500,1.995 C14.500,1.995 16.000,1.496 16.000,1.496 Z" id="path-1" class="cls-2" fill-rule="evenodd"/>
</svg>
