<svg xmlns="http://www.w3.org/2000/svg" xmlns:xlink="http://www.w3.org/1999/xlink" preserveAspectRatio="xMidYMid" width="8" height="15" viewBox="0 0 8 15">
  <defs>
    <style>

      .cls-2 {
        fill: #a9afbf;
      }
    </style>
  </defs>
  <path d="M2.406,15.000 C2.406,15.000 2.406,8.000 2.406,8.000 C2.406,8.000 0.000,8.000 0.000,8.000 C0.000,8.000 0.000,5.531 0.000,5.531 C0.000,5.531 2.406,5.531 2.406,5.531 C2.406,5.531 2.406,3.000 2.406,3.000 C2.406,0.662 4.182,0.004 6.229,0.004 C7.209,0.004 7.725,0.112 7.971,0.145 C7.971,0.145 7.971,2.512 7.971,2.512 C7.971,2.512 6.235,2.512 6.235,2.512 C5.122,2.512 5.000,4.209 5.000,5.000 C5.000,5.000 5.000,5.531 5.000,5.531 C5.000,5.531 8.000,5.531 8.000,5.531 C8.000,5.531 7.500,8.000 7.500,8.000 C7.500,8.000 5.000,8.000 5.000,8.000 C5.000,8.000 5.000,15.000 5.000,15.000 C5.000,15.000 2.406,15.000 2.406,15.000 Z" id="path-1" class="cls-2" fill-rule="evenodd"/>
</svg>
