<svg xmlns="http://www.w3.org/2000/svg" xmlns:xlink="http://www.w3.org/1999/xlink" preserveAspectRatio="xMidYMid" width="14" height="16" viewBox="0 0 14 16">
  <defs>
    <style>

      .cls-2 {
        fill: #a9afbf;
      }
    </style>
  </defs>
  <path d="M13.729,7.803 C13.325,7.896 12.935,7.937 12.583,7.937 C10.606,7.937 9.084,6.557 9.084,4.156 C9.084,2.979 9.539,2.367 10.183,2.367 C10.795,2.367 11.203,2.916 11.203,4.030 C11.203,4.664 11.033,5.358 10.908,5.769 C10.908,5.769 11.517,6.831 13.183,6.505 C13.537,5.720 13.729,4.703 13.729,3.811 C13.729,1.410 12.505,0.013 10.261,0.013 C7.955,0.013 6.605,1.786 6.605,4.125 C6.605,6.441 7.688,8.429 9.473,9.335 C8.722,10.837 7.767,12.160 6.771,13.156 C4.963,10.971 3.329,8.056 2.658,2.367 C2.658,2.367 -0.008,2.367 -0.008,2.367 C1.224,11.842 4.896,14.859 5.866,15.438 C6.416,15.768 6.888,15.752 7.391,15.469 C8.179,15.021 10.546,12.654 11.858,9.882 C12.409,9.881 13.070,9.818 13.729,9.669 C13.729,9.669 13.729,7.803 13.729,7.803 Z" id="path-1" class="cls-2" fill-rule="evenodd"/>
</svg>
