<?xml version="1.0" encoding="utf-8"?>
<!-- Generator: Adobe Illustrator 18.1.0, SVG Export Plug-In . SVG Version: 6.00 Build 0)  -->
<svg version="1.1" id="Layer_1" xmlns="http://www.w3.org/2000/svg" xmlns:xlink="http://www.w3.org/1999/xlink" x="0px" y="0px"
	 width="22px" height="25px" viewBox="0 0 22 25" enable-background="new 0 0 22 25" xml:space="preserve">
<g>
	<g>
		<path fill-rule="evenodd" clip-rule="evenodd" fill="#3D4042" d="M15.5,5H1.5C0.7,5,0,5.7,0,6.5v16.9C0,24.3,0.7,25,1.5,25h13.9
			c0.9,0,1.5-0.7,1.5-1.5V6.5C17,5.7,16.3,5,15.5,5z M16,23.2c0,0.4-0.3,0.8-0.8,0.8H1.8C1.4,24,1,23.7,1,23.2V6.8
			C1,6.3,1.4,6,1.8,6h13.4C15.6,6,16,6.3,16,6.8V23.2z M20.4,0H7.6C6.7,0,6,0.7,6,1.5V3h1V1.8C7,1.3,7.4,1,7.8,1h12.4
			C20.6,1,21,1.3,21,1.8v16.5c0,0.4-0.4,0.8-0.8,0.8H19v1h1.4c0.9,0,1.6-0.7,1.6-1.5V1.5C22,0.7,21.3,0,20.4,0z"/>
	</g>
</g>
</svg>
